<svg version="1.1" id="Layer_1" xmlns="http://www.w3.org/2000/svg" xmlns:xlink="http://www.w3.org/1999/xlink" x="0px" y="0px"
	 width="100%" viewBox="0 0 1024 576" enable-background="new 0 0 1024 576" xml:space="preserve">
<path fill="#000000" opacity="1.000000" stroke="none" 
	d="
M41.434410,403.481720 
	C52.172726,391.128510 65.609688,382.592438 78.247459,373.108795 
	C100.503693,356.407379 123.122063,340.163605 142.519058,320.001953 
	C154.397720,307.654999 164.655121,294.227722 170.923218,278.088501 
	C171.204483,277.364319 171.427750,276.617554 171.393890,275.735260 
	C165.080444,285.517303 158.495682,295.034393 151.026123,303.932037 
	C136.927048,320.726654 119.510475,333.507904 101.337997,345.408234 
	C84.754395,356.268066 68.202950,367.177032 51.623566,378.043274 
	C50.392715,378.849976 49.225124,379.878571 47.509632,379.876251 
	C45.380909,378.630463 45.798611,376.405151 45.897053,374.563049 
	C46.535919,362.608093 47.007797,350.607635 51.046303,339.150146 
	C53.679806,331.678741 57.557610,325.008026 63.195671,319.293549 
	C78.994652,303.280457 94.803528,287.262909 108.094955,269.003540 
	C117.563858,255.995438 126.010475,242.493958 129.086670,226.337036 
	C129.194366,225.771362 129.770218,225.294846 130.517776,224.212006 
	C136.005432,234.174438 137.557434,244.554626 138.428253,256.187073 
	C143.459167,248.119827 146.905167,240.141815 147.327972,231.836731 
	C148.162201,215.450409 153.062103,199.838699 155.015747,183.700974 
	C158.248962,156.993484 156.302261,130.901428 146.639023,105.604675 
	C146.057495,104.082298 145.160263,102.627907 145.417374,100.784309 
	C147.248306,100.084160 148.189178,101.561859 149.132248,102.484993 
	C175.404114,128.201553 196.037964,157.463257 205.322174,193.603790 
	C213.796539,226.591858 209.879669,258.291626 194.477219,288.618042 
	C193.950211,289.655731 193.421188,290.693451 192.937408,291.751373 
	C192.807129,292.036255 192.840073,292.395752 192.696854,293.505249 
	C199.712936,290.086945 204.569946,284.780853 209.720886,279.831635 
	C214.987534,274.771240 218.839676,268.577942 223.673584,261.867554 
	C218.938812,286.161041 191.990448,339.113403 142.679550,368.078339 
	C146.006073,367.183105 149.383118,366.439362 152.645340,365.351349 
	C156.115189,364.194122 159.538361,362.847198 162.867310,361.331390 
	C166.169159,359.827942 169.328278,358.011078 172.939926,356.128418 
	C173.342957,358.834717 171.402451,359.622223 170.233200,360.701538 
	C146.037308,383.036835 117.765144,397.501068 85.573799,404.309906 
	C73.185349,406.930237 61.339809,410.677216 52.420364,420.342682 
	C42.919323,430.638458 39.631413,442.963867 41.034496,456.720276 
	C41.310349,459.424805 41.521523,462.135925 41.812244,465.402710 
	C29.536623,453.089447 23.304501,424.911072 41.434410,403.481720 
z"/>
<path fill="#000000" opacity="1.000000" stroke="none" 
	d="
M924.849304,358.980530 
	C923.001892,353.040070 921.315857,347.464142 919.495972,341.932190 
	C918.805664,339.833862 918.606995,336.893158 915.246277,337.467712 
	C912.105774,338.004700 912.946960,340.765991 912.942017,342.740234 
	C912.889832,363.560425 912.933350,384.380829 912.947388,405.201172 
	C912.948669,407.033264 912.840027,408.870117 912.937439,410.696503 
	C913.163696,414.938263 911.383911,416.713776 907.009460,416.380463 
	C902.869324,416.064941 898.668701,416.069611 894.527100,416.373810 
	C889.988403,416.707153 888.846924,414.683563 888.869019,410.499237 
	C888.997803,386.181610 888.928650,361.862976 888.931213,337.544678 
	C888.931824,332.048157 889.029541,326.550232 888.933777,321.055573 
	C888.871826,317.502533 890.339172,315.914551 893.974670,315.940613 
	C905.966492,316.026581 917.960083,316.036469 929.951477,315.921936 
	C933.463379,315.888397 934.831360,317.632812 935.797424,320.740082 
	C942.909058,343.614899 950.163269,366.445374 957.371216,389.290253 
	C957.771667,390.559418 958.134033,391.841156 958.559387,393.101807 
	C959.168518,394.907471 960.369568,395.840179 962.349915,395.542572 
	C964.276489,395.253052 964.627930,393.865967 964.647278,392.249634 
	C964.665222,390.750732 964.688782,389.251770 964.689148,387.752838 
	C964.694519,365.932983 964.813171,344.112030 964.606934,322.294159 
	C964.562134,317.556946 965.967285,315.569153 970.817566,315.909485 
	C974.961426,316.200287 979.142273,316.033997 983.304993,315.965790 
	C986.803772,315.908508 988.371643,317.300385 988.359924,321.016571 
	C988.264404,351.164307 988.260437,381.312531 988.340454,411.460327 
	C988.350281,415.165222 986.917358,416.403381 983.299255,416.360107 
	C971.308472,416.216705 959.313293,416.201904 947.323120,416.371277 
	C943.805054,416.420959 942.440186,414.939575 941.458252,411.744263 
	C936.080811,394.245972 930.480896,376.816010 924.849304,358.980530 
z"/>
<path fill="#000000" opacity="1.000000" stroke="none" 
	d="
M337.686646,370.065216 
	C347.137756,375.515442 347.922974,384.212952 347.266846,393.325623 
	C346.679535,401.482483 342.327240,407.303925 335.092834,410.945496 
	C327.492188,414.771362 319.220795,416.023132 310.887726,416.202667 
	C296.735565,416.507538 282.570679,416.185211 268.415009,416.391327 
	C264.362671,416.450317 263.464447,415.001770 263.463104,411.141174 
	C263.453308,383.497345 263.968079,355.851166 263.156128,328.208405 
	C262.795197,315.919647 262.938843,315.823853 275.063873,315.939758 
	C290.032166,316.082794 305.081940,314.963715 319.911713,317.800385 
	C334.684448,320.626190 341.150391,328.952332 340.238617,343.284027 
	C339.625580,352.920074 334.555695,358.587799 325.015259,360.293396 
	C323.540253,360.557129 322.058441,360.782837 320.583527,361.046906 
	C318.837158,361.359589 316.527008,361.155884 316.610046,363.784637 
	C316.686890,366.217773 318.910492,365.702515 320.444580,365.948090 
	C326.174042,366.865204 332.081390,367.002563 337.686646,370.065216 
M310.728394,395.198578 
	C312.052551,395.088501 313.381592,395.018982 314.700073,394.861389 
	C320.875092,394.123444 323.666168,391.076752 323.668213,385.111206 
	C323.670319,379.125336 320.893066,375.757263 314.720612,375.401703 
	C306.936768,374.953278 299.119965,375.083923 291.317810,374.941956 
	C288.401794,374.888885 287.102081,376.232880 287.180054,379.183533 
	C287.289673,383.333405 287.312805,387.490448 287.198700,391.639679 
	C287.114899,394.686523 288.475525,395.747803 291.411896,395.648132 
	C297.549377,395.439850 303.693146,395.416229 310.728394,395.198578 
M306.092529,337.302368 
	C300.948944,337.303284 295.804871,337.347534 290.662018,337.286987 
	C288.057709,337.256317 286.799103,338.627502 287.265106,340.975494 
	C288.098450,345.174255 284.370361,351.855774 289.794830,353.162537 
	C296.472321,354.771118 303.949860,354.511780 310.990631,352.692444 
	C314.343628,351.825989 315.929688,349.460693 316.393890,346.280212 
	C317.141144,341.160431 313.812683,338.052246 306.092529,337.302368 
z"/>
<path fill="#000000" opacity="1.000000" stroke="none" 
	d="
M428.715881,413.961517 
	C415.183014,419.030945 401.681671,419.613770 388.108795,416.425720 
	C369.261017,411.998718 359.444580,400.361084 358.986694,381.084930 
	C358.516174,361.276947 358.942108,341.448730 358.833893,321.630188 
	C358.811432,317.519257 360.515228,315.913361 364.502441,316.051178 
	C368.661011,316.194916 372.833160,316.202759 376.990906,316.046082 
	C381.445557,315.878204 383.095673,317.704437 383.065125,322.262787 
	C382.943451,340.412659 383.010559,358.566345 383.252533,376.715363 
	C383.450256,391.543945 388.936920,396.841736 403.609375,396.972626 
	C404.941101,396.984528 406.274597,396.960876 407.605286,396.906067 
	C419.439667,396.418610 425.391479,390.684052 425.623535,378.764984 
	C425.980042,360.453186 425.970581,342.134247 426.117157,323.818359 
	C426.175903,316.474060 426.453644,316.160370 433.633026,316.100037 
	C437.628845,316.066467 441.625854,316.130524 445.621918,316.182404 
	C448.368805,316.218018 450.034515,317.401855 449.995972,320.388733 
	C449.714630,342.188812 451.105133,364.020538 449.292999,385.784607 
	C448.196381,398.955536 441.393524,408.492096 428.715881,413.961517 
z"/>
<path fill="#000000" opacity="1.000000" stroke="none" 
	d="
M652.657715,395.544891 
	C666.587585,395.611694 680.089050,395.751831 693.585999,395.566589 
	C697.762390,395.509277 699.344910,397.065704 699.141846,401.100952 
	C698.966125,404.592865 699.029602,408.099213 699.062134,411.598511 
	C699.092712,414.885223 697.724487,416.368683 694.252258,416.352905 
	C673.252747,416.257477 652.252686,416.267212 631.252991,416.327667 
	C628.081665,416.336792 626.751343,415.113495 626.757812,411.907806 
	C626.818726,381.574890 626.836609,351.241852 626.789673,320.908936 
	C626.783936,317.188995 628.538696,315.951355 632.003113,315.959137 
	C652.669434,316.005615 673.336060,316.003540 694.002380,315.944519 
	C697.549683,315.934387 699.248169,317.337097 699.106323,320.995972 
	C698.964233,324.657684 698.937927,328.331482 699.056458,331.993652 
	C699.179932,335.811981 697.564880,337.339539 693.694275,337.297852 
	C681.195801,337.163300 668.691406,337.424377 656.196960,337.164429 
	C651.632324,337.069458 650.157349,338.446167 650.250122,343.100372 
	C650.500366,355.647430 650.296265,355.652100 662.927246,355.657623 
	C670.760559,355.661041 678.596375,355.781036 686.425964,355.611359 
	C690.033203,355.533203 691.348877,356.769135 691.438660,360.490814 
	C691.820984,376.331512 691.926025,376.328552 675.973816,376.330536 
	C668.807251,376.331421 661.639526,376.410309 654.474670,376.299774 
	C651.526855,376.254303 650.197449,377.272552 650.332336,380.361664 
	C650.499329,384.187408 650.359863,388.026459 650.355347,391.859772 
	C650.353516,393.391602 650.349304,394.928192 652.657715,395.544891 
z"/>
<path fill="#000000" opacity="1.000000" stroke="none" 
	d="
M848.000000,416.311157 
	C835.502747,416.310547 823.502625,416.159637 811.509766,416.387756 
	C807.130676,416.471008 805.733582,414.933197 805.701050,410.610718 
	C805.588318,395.623474 805.456299,395.624451 820.197876,395.642120 
	C821.530884,395.643707 822.869446,395.568298 824.195862,395.662872 
	C827.343567,395.887207 828.694885,394.623413 828.676270,391.329987 
	C828.582214,374.667755 828.598206,358.004517 828.672607,341.342072 
	C828.686035,338.331329 827.489990,337.152161 824.512695,337.227753 
	C819.850403,337.346161 815.179626,337.142639 810.517822,337.270538 
	C807.076782,337.364960 805.678955,335.845062 805.769592,332.484344 
	C805.872803,328.654877 805.948364,324.811096 805.735474,320.990265 
	C805.500916,316.780731 807.858765,315.942841 811.337769,315.955048 
	C823.168152,315.996490 834.998840,315.958221 846.829407,315.955353 
	C854.494263,315.953491 862.160156,316.032501 869.823608,315.931610 
	C873.455994,315.883820 874.942932,317.294098 874.634460,321.032074 
	C874.320129,324.840820 874.334290,328.693420 874.469421,332.517456 
	C874.589233,335.907440 873.293884,337.402802 869.823853,337.291290 
	C865.329834,337.146912 860.824402,337.370270 856.329346,337.241760 
	C853.289124,337.154877 852.233826,338.455688 852.246826,341.412659 
	C852.320129,358.075165 852.341919,374.738556 852.230164,391.400635 
	C852.207703,394.748260 853.572266,395.779114 856.708191,395.669037 
	C861.201538,395.511292 865.707458,395.728668 870.202698,395.600616 
	C873.044434,395.519714 874.745422,396.521515 874.706360,399.499725 
	C874.645325,404.159546 874.487793,408.818756 874.318726,413.476318 
	C874.212830,416.391724 872.023560,416.290497 869.995178,416.295868 
	C862.830139,416.314911 855.665039,416.308014 848.000000,416.311157 
z"/>
<path fill="#000000" opacity="1.000000" stroke="none" 
	d="
M727.972534,337.237244 
	C722.646606,337.239532 717.805420,337.055878 712.985840,337.299561 
	C708.784546,337.511993 707.287476,335.758087 707.564514,331.705261 
	C707.791260,328.388428 707.840698,325.024353 707.557373,321.716431 
	C707.181152,317.323975 708.986938,315.854858 713.280090,315.898682 
	C728.773499,316.056824 744.269531,315.964661 759.764526,315.965271 
	C769.927917,315.965668 780.093811,316.092346 790.253601,315.901215 
	C794.599426,315.819458 796.157104,317.527222 796.084839,321.797821 
	C795.770447,340.381378 798.188904,336.859406 780.866821,337.227234 
	C776.703247,337.315613 772.523499,337.450348 768.374817,337.188873 
	C764.396790,336.938171 763.235352,338.497437 763.260864,342.387329 
	C763.408447,364.879150 763.197815,387.373840 763.434204,409.864136 
	C763.486328,414.823120 762.188843,416.926819 757.014587,416.385895 
	C753.388428,416.006805 749.671692,416.068207 746.030518,416.364410 
	C741.282593,416.750671 739.603027,414.983398 739.652588,410.138947 
	C739.862122,389.647583 739.755615,369.152985 739.752380,348.659546 
	C739.750549,337.226410 739.739685,337.226410 727.972534,337.237244 
z"/>
<path fill="#000000" opacity="1.000000" stroke="none" 
	d="
M515.957153,417.186401 
	C502.645447,417.527252 489.828217,418.005341 477.007111,418.160858 
	C466.629547,418.286774 462.760925,414.294342 462.756775,404.029846 
	C462.745911,377.036469 462.748932,350.043091 462.768524,323.049713 
	C462.773407,316.349091 463.016602,316.131561 469.875153,316.069336 
	C473.373871,316.037598 476.880493,316.221893 480.370544,316.048004 
	C484.771149,315.828705 486.484192,317.399536 486.438690,322.113190 
	C486.218292,344.938751 486.499939,367.769562 486.224609,390.593964 
	C486.162079,395.779510 487.799927,397.230316 492.772125,396.982513 
	C504.911591,396.377441 517.077271,396.315979 529.222534,395.800964 
	C533.526062,395.618500 535.269348,397.137665 535.169434,401.496368 
	C534.747070,419.928864 537.251526,415.179230 520.443665,417.008240 
	C519.121704,417.152069 517.781677,417.129486 515.957153,417.186401 
z"/>
<path fill="#000000" opacity="1.000000" stroke="none" 
	d="
M544.773071,345.000000 
	C544.777588,337.175415 545.042969,329.838440 544.695618,322.530579 
	C544.461731,317.609863 546.547363,315.970337 551.079285,316.125549 
	C554.736450,316.250732 558.411560,316.275543 562.062134,316.061829 
	C566.672241,315.791992 568.471802,317.418732 568.422180,322.353577 
	C568.192688,345.157349 568.452026,367.965973 568.232910,390.769928 
	C568.186768,395.571136 569.586243,397.210266 574.432373,396.975433 
	C586.560974,396.387634 598.717102,396.373169 610.847046,395.804596 
	C615.745483,395.574951 617.250916,397.461853 617.158569,402.156586 
	C616.809631,419.894745 618.896240,415.667969 602.808472,416.873291 
	C588.058899,417.978394 573.215576,417.942780 558.409912,418.148987 
	C548.800171,418.282867 544.771301,414.069031 544.757751,404.429718 
	C544.730164,384.786499 544.764404,365.143250 544.773071,345.000000 
z"/>
<path fill="#000000" opacity="1.000000" stroke="none" 
	d="
M370.266113,227.685059 
	C369.868134,231.686798 371.573730,232.732712 374.955566,232.707977 
	C390.785278,232.592270 406.617889,232.541428 422.446014,232.739456 
	C426.768158,232.793518 427.798584,231.045151 427.734528,227.100784 
	C427.547852,215.605774 427.885712,204.099731 427.566803,192.610535 
	C427.421661,187.380844 430.238983,187.070343 434.134796,187.018417 
	C438.103638,186.965546 440.307800,187.944443 440.286102,192.596832 
	C440.147095,222.424316 440.145264,252.253098 440.281464,282.080627 
	C440.303558,286.915924 437.811646,287.422028 433.977875,287.370117 
	C430.303528,287.320374 427.494904,287.238678 427.608582,282.212189 
	C427.860992,271.053314 427.532379,259.881775 427.747101,248.721283 
	C427.825134,244.664169 426.625732,243.145142 422.402069,243.198883 
	C406.740570,243.398239 391.074127,243.381226 375.411865,243.220047 
	C371.534851,243.180145 370.113068,244.400391 370.184937,248.361664 
	C370.384338,259.356110 370.032135,270.362854 370.346222,281.351929 
	C370.491028,286.418945 368.388794,287.507019 363.842468,287.430847 
	C359.602905,287.359802 357.547791,286.544525 357.580200,281.620087 
	C357.775421,251.959824 357.754028,222.297119 357.578644,192.636566 
	C357.551819,188.107742 359.251892,186.840256 363.433167,186.983597 
	C367.431519,187.120667 370.537506,187.121811 370.361267,192.735672 
	C370.000702,204.222214 370.259155,215.728195 370.266113,227.685059 
z"/>
<path fill="#000000" opacity="1.000000" stroke="none" 
	d="
M469.100586,187.049622 
	C485.081818,187.048965 500.578339,187.017273 516.074524,187.069809 
	C521.776184,187.089142 524.215637,190.979156 522.072571,196.322647 
	C521.060425,198.846542 518.858521,198.322311 516.956604,198.329590 
	C504.126404,198.378784 491.291718,198.550446 478.467804,198.264816 
	C473.739197,198.159515 471.948212,199.450424 472.200562,204.386108 
	C472.582886,211.864899 472.467163,219.382553 472.236237,226.873642 
	C472.119171,230.670685 473.588867,231.775101 477.200775,231.719955 
	C487.862457,231.557129 498.529327,231.749374 509.191895,231.618439 
	C513.004639,231.571625 515.367065,232.001770 515.459656,236.883759 
	C515.559448,242.146042 512.876221,242.419876 508.931000,242.369461 
	C498.435059,242.235321 487.933929,242.440781 477.440186,242.237640 
	C473.570343,242.162735 472.088593,243.366394 472.219818,247.373535 
	C472.476044,255.196732 472.467560,263.039062 472.234070,270.863495 
	C472.115723,274.830353 473.610077,276.116913 477.459900,276.071960 
	C490.288452,275.922241 503.120087,275.974030 515.950134,276.035370 
	C521.858154,276.063629 522.382751,276.899078 522.338562,282.780121 
	C522.311768,286.340851 520.739319,287.356537 517.452759,287.341187 
	C499.790588,287.258606 482.127686,287.251862 464.465546,287.337158 
	C461.063110,287.353577 459.704132,286.080017 459.711182,282.639618 
	C459.773346,252.313522 459.716095,221.987167 459.755188,191.660980 
	C459.764191,184.683929 465.302124,187.906601 469.100586,187.049622 
z"/>
<path fill="#000000" opacity="1.000000" stroke="none" 
	d="
M295.510925,200.737762 
	C294.410858,197.826431 292.172638,198.416702 290.273590,198.402405 
	C282.117676,198.340942 273.957367,198.222275 265.806366,198.428711 
	C261.777466,198.530746 260.645813,196.820877 260.656342,193.068619 
	C260.666626,189.409866 261.168030,186.983887 265.670502,187.002457 
	C289.639496,187.101334 313.609283,187.097275 337.578400,187.019608 
	C342.155914,187.004776 342.401154,189.640594 342.469421,193.199341 
	C342.543762,197.076157 341.196320,198.532486 337.257751,198.423096 
	C329.440521,198.205978 321.604248,198.590393 313.792664,198.289337 
	C309.374786,198.119080 308.068390,199.653152 308.096832,204.001663 
	C308.262299,229.301819 308.176727,254.603653 308.173737,279.904907 
	C308.172943,286.818542 304.205292,289.540161 297.741028,287.126343 
	C295.148071,286.158081 295.710663,283.934509 295.699951,282.057709 
	C295.632446,270.239716 295.660675,258.421204 295.646606,246.602844 
	C295.628601,231.455811 295.600555,216.308762 295.510925,200.737762 
z"/>
</svg>