<svg width="521" height="262" xmlns="http://www.w3.org/2000/svg" xmlns:xlink="http://www.w3.org/1999/xlink" overflow="hidden"><defs><clipPath id="clip0"><rect x="67" y="138" width="144" height="216"/></clipPath><clipPath id="clip1"><rect x="67" y="138" width="144" height="216"/></clipPath><clipPath id="clip2"><rect x="67" y="138" width="144" height="216"/></clipPath></defs><g transform="translate(-18 -119)"><g clip-path="url(#clip0)"><g clip-path="url(#clip1)"><g clip-path="url(#clip2)"><path d="M102.776 208.031C102.776 208.031 100.93 184.894 111.329 173.828 121.727 162.762 149.555 136.943 151.906 115.815 151.906 115.815 158.612 128.89 155.262 138.284 155.262 138.284 163.983 127.218 162.972 111.455 162.972 111.455 175.38 75.2375 160.627 42.376 160.627 42.376 224.341 95.3609 186.783 159.075 186.783 159.075 201.199 150.691 207.574 137.611 207.574 137.611 196.844 180.534 155.262 202.329 155.262 202.329 168.842 199.815 177.9 193.777 177.9 193.777 158.281 215.741 124.746 222.116 91.2112 228.485 99.5949 258.333 99.5949 258.333 99.5949 258.333 81.1494 235.864 106.638 215.41 132.126 194.956 172.367 172.15 179.072 139.289 179.072 139.289 169.684 163.436 143.192 181.544 116.693 199.647 102.776 208.031 102.776 208.031" fill-rule="evenodd" transform="matrix(1.0056 0 0 1 -14.5859 95.6153)"/></g></g></g><path d="M331.159 311.544C327.611 311.544 325.105 312.298 323.643 313.806 322.18 315.315 321.449 317.96 321.449 321.742L339.935 321.742C339.935 321.646 339.947 321.419 339.971 321.06 339.995 320.701 340.007 320.425 340.007 320.234 339.959 317.074 339.264 314.836 337.921 313.519 336.578 312.202 334.324 311.544 331.159 311.544ZM250.268 306.948 256.167 306.948 256.167 342.425 250.268 342.425ZM362.042 306.23C363.96 306.23 365.699 306.277 367.257 306.373 368.816 306.469 370.458 306.661 372.185 306.948L372.185 312.19C370.938 311.999 369.475 311.843 367.797 311.724 366.118 311.604 364.32 311.544 362.402 311.544 359.333 311.544 357.211 311.903 356.036 312.621 354.861 313.339 354.274 314.8 354.274 317.002 354.274 318.151 354.549 319.025 355.101 319.624 355.652 320.222 356.527 320.617 357.726 320.808L366.862 322.173C369.739 322.604 371.753 323.502 372.904 324.866 374.055 326.231 374.63 328.373 374.63 331.294 374.63 335.411 373.647 338.392 371.681 340.235 369.715 342.078 366.454 343 361.898 343 359.165 343 356.623 342.856 354.274 342.569 351.924 342.282 349.982 341.899 348.447 341.42L348.447 335.89C349.982 336.369 351.864 336.764 354.094 337.075 356.324 337.386 358.613 337.542 360.963 337.542 363.936 337.542 365.974 337.111 367.077 336.249 368.18 335.387 368.732 333.855 368.732 331.653 368.732 330.264 368.42 329.247 367.797 328.601 367.173 327.954 366.046 327.511 364.416 327.272L355.281 325.907C352.979 325.572 351.264 324.687 350.137 323.25 349.011 321.814 348.423 319.731 348.375 317.002 348.375 313.268 349.49 310.539 351.72 308.815 353.95 307.091 357.391 306.23 362.042 306.23ZM331.159 306.23C336.243 306.23 339.887 307.367 342.093 309.641 344.299 311.915 345.402 315.71 345.402 321.024 345.402 321.982 345.378 322.867 345.33 323.681 345.282 324.495 345.186 325.477 345.042 326.626L321.449 326.626C321.497 330.552 322.3 333.353 323.858 335.028 325.417 336.704 328.114 337.542 331.951 337.542 334.013 337.542 336.171 337.35 338.425 336.967 340.678 336.584 342.501 336.106 343.891 335.531L343.891 340.486C342.645 341.157 340.81 341.743 338.389 342.246 335.967 342.749 333.509 343 331.016 343 325.453 343 321.473 341.564 319.075 338.691 316.677 335.818 315.478 331.078 315.478 324.471 315.478 318.103 316.725 313.471 319.219 310.575 321.712 307.678 325.693 306.23 331.159 306.23ZM279.089 306.23C281.103 306.23 282.829 306.541 284.268 307.163 285.707 307.786 286.833 308.719 287.649 309.964L287.865 309.964C289.783 308.767 291.809 307.845 293.943 307.199 296.077 306.553 298.223 306.23 300.381 306.23 303.785 306.23 306.363 307.127 308.113 308.923 309.864 310.718 310.739 313.363 310.739 316.859L310.739 342.425 304.84 342.425 304.84 317.577C304.84 315.518 304.289 313.998 303.186 313.016 302.083 312.035 300.333 311.544 297.935 311.544 296.592 311.544 295.178 311.748 293.691 312.155 292.204 312.562 290.718 313.148 289.231 313.914 289.327 314.393 289.387 314.872 289.411 315.35 289.435 315.829 289.447 316.332 289.447 316.859L289.447 342.425 283.549 342.425 283.549 317.577C283.549 315.518 282.997 313.998 281.894 313.016 280.791 312.035 279.041 311.544 276.643 311.544 275.444 311.544 274.173 311.748 272.831 312.155 271.488 312.562 269.929 313.244 268.155 314.201L268.155 342.425 262.257 342.425 262.257 306.948 267.652 306.948 267.939 309.677 268.155 309.677C270.265 308.48 272.183 307.606 273.91 307.056 275.636 306.505 277.362 306.23 279.089 306.23ZM211.633 297.396 247.671 297.396 247.671 302.926 232.709 302.926 232.709 342.425 226.595 342.425 226.595 302.926 211.633 302.926ZM250.052 294.667 256.382 294.667 256.382 300.772 250.052 300.772ZM371.889 260.506C368.628 260.506 366.362 260.901 365.091 261.691 363.821 262.481 363.185 263.882 363.185 265.892 363.185 267.999 363.713 269.519 364.768 270.453 365.823 271.386 367.549 271.853 369.947 271.853 371.817 271.853 373.735 271.566 375.701 270.991 377.667 270.417 379.274 269.699 380.521 268.837L380.521 261.224C378.938 260.985 377.464 260.805 376.097 260.686 374.73 260.566 373.327 260.506 371.889 260.506ZM265.989 260.506C262.728 260.506 260.462 260.901 259.192 261.691 257.921 262.481 257.285 263.882 257.285 265.892 257.285 267.999 257.813 269.519 258.868 270.453 259.923 271.386 261.649 271.853 264.047 271.853 265.917 271.853 267.836 271.566 269.802 270.991 271.768 270.417 273.374 269.699 274.621 268.837L274.621 261.224C273.039 260.985 271.564 260.805 270.197 260.686 268.83 260.566 267.428 260.506 265.989 260.506ZM407.088 245.712C403.539 245.712 401.033 246.466 399.571 247.974 398.108 249.482 397.377 252.127 397.377 255.91L415.863 255.91C415.863 255.814 415.875 255.587 415.899 255.228 415.923 254.869 415.935 254.593 415.935 254.402 415.887 251.242 415.192 249.003 413.849 247.687 412.506 246.37 410.253 245.712 407.088 245.712ZM302.77 245.712C300.996 245.712 299.306 245.963 297.699 246.466 296.093 246.969 294.57 247.699 293.132 248.656L293.132 270.273C294.33 270.752 295.565 271.111 296.836 271.351 298.107 271.59 299.533 271.71 301.116 271.71 305.576 271.71 308.585 270.788 310.143 268.945 311.702 267.101 312.481 263.714 312.481 258.783 312.481 253.899 311.798 250.5 310.431 248.585 309.064 246.669 306.511 245.712 302.77 245.712ZM407.088 240.397C412.171 240.397 415.815 241.535 418.021 243.809 420.227 246.083 421.33 249.877 421.33 255.192 421.33 256.149 421.306 257.035 421.258 257.849 421.21 258.663 421.114 259.644 420.97 260.793L397.377 260.793C397.425 264.719 398.228 267.52 399.787 269.196 401.345 270.872 404.042 271.71 407.879 271.71 409.941 271.71 412.099 271.518 414.353 271.135 416.607 270.752 418.429 270.273 419.82 269.699L419.82 274.654C418.573 275.324 416.738 275.911 414.317 276.414 411.895 276.916 409.437 277.168 406.944 277.168 401.381 277.168 397.401 275.731 395.003 272.859 392.605 269.986 391.406 265.246 391.406 258.639 391.406 252.271 392.653 247.639 395.147 244.742 397.641 241.846 401.621 240.397 407.088 240.397ZM373.831 240.397C378.099 240.397 381.264 241.391 383.326 243.378 385.388 245.365 386.419 248.441 386.419 252.606L386.419 276.593 381.024 276.593 380.737 273.29 380.593 273.29C379.154 274.439 377.296 275.372 375.018 276.09 372.74 276.809 370.474 277.168 368.22 277.168 364.576 277.168 361.902 276.294 360.2 274.546 358.498 272.799 357.646 270.034 357.646 266.251 357.646 262.421 358.677 259.704 360.739 258.1 362.802 256.496 366.302 255.694 371.241 255.694 372.872 255.694 374.478 255.766 376.061 255.91 377.643 256.053 379.13 256.269 380.521 256.556L380.521 253.109C380.521 250.476 379.849 248.585 378.507 247.435 377.164 246.286 375.006 245.712 372.033 245.712 369.827 245.712 367.885 245.796 366.206 245.963 364.528 246.131 362.849 246.406 361.171 246.789L361.171 241.69C363.089 241.211 365.043 240.876 367.034 240.685 369.024 240.493 371.289 240.397 373.831 240.397ZM304.856 240.397C309.7 240.397 313.165 241.834 315.251 244.706 317.337 247.579 318.38 252.271 318.38 258.783 318.38 265.294 317.109 269.986 314.567 272.859 312.026 275.731 307.782 277.168 301.835 277.168 300.061 277.168 298.442 277.048 296.98 276.809 295.517 276.569 294.234 276.21 293.132 275.731L293.132 287.509 287.233 287.509 287.233 241.116 292.34 241.116 292.7 244.275 292.916 244.275C294.402 243.031 296.177 242.073 298.239 241.403 300.301 240.732 302.507 240.397 304.856 240.397ZM267.931 240.397C272.199 240.397 275.364 241.391 277.426 243.378 279.488 245.365 280.519 248.441 280.519 252.606L280.519 276.593 275.125 276.593 274.837 273.29 274.693 273.29C273.254 274.439 271.396 275.372 269.118 276.09 266.84 276.809 264.575 277.168 262.321 277.168 258.676 277.168 256.003 276.294 254.3 274.546 252.598 272.799 251.747 270.034 251.747 266.251 251.747 262.421 252.778 259.704 254.84 258.1 256.902 256.496 260.403 255.694 265.342 255.694 266.972 255.694 268.579 255.766 270.161 255.91 271.744 256.053 273.23 256.269 274.621 256.556L274.621 253.109C274.621 250.476 273.95 248.585 272.607 247.435 271.264 246.286 269.106 245.712 266.133 245.712 263.927 245.712 261.985 245.796 260.307 245.963 258.628 246.131 256.95 246.406 255.271 246.789L255.271 241.69C257.19 241.211 259.144 240.876 261.134 240.685 263.124 240.493 265.39 240.397 267.931 240.397ZM221.847 237.094 221.847 255.048 231.054 255.048C235.178 255.048 238.152 254.306 239.974 252.822 241.796 251.337 242.707 248.944 242.707 245.64 242.707 242.576 241.82 240.385 240.046 239.069 238.271 237.752 235.274 237.094 231.054 237.094ZM215.733 231.564 231.054 231.564C237.432 231.564 242 232.653 244.757 234.831 247.515 237.01 248.893 240.613 248.893 245.64 248.893 249.566 248.018 252.69 246.268 255.012 244.518 257.334 241.868 258.902 238.319 259.716L250.116 276.593 242.779 276.593 231.846 260.434 221.847 260.434 221.847 276.593 215.733 276.593ZM426.102 228.835 432 228.835 432 276.593 426.102 276.593ZM323.199 228.835 329.097 228.835 329.097 243.988C331.255 242.791 333.401 241.894 335.535 241.295 337.669 240.697 339.791 240.397 341.901 240.397 345.834 240.397 348.795 241.379 350.785 243.342 352.775 245.305 353.77 248.202 353.77 252.032L353.77 276.593 347.872 276.593 347.872 252.75C347.872 250.308 347.236 248.525 345.965 247.399 344.695 246.274 342.716 245.712 340.031 245.712 338.257 245.712 336.422 245.951 334.528 246.43 332.634 246.909 330.824 247.579 329.097 248.441L329.097 276.593 323.199 276.593ZM259.995 195.671C256.734 195.671 254.468 196.066 253.197 196.856 251.926 197.646 251.291 199.047 251.291 201.058 251.291 203.164 251.819 204.684 252.874 205.618 253.929 206.552 255.655 207.018 258.053 207.018 259.923 207.018 261.841 206.731 263.807 206.157 265.773 205.582 267.38 204.864 268.627 204.002L268.627 196.389C267.044 196.15 265.57 195.971 264.203 195.851 262.836 195.731 261.433 195.671 259.995 195.671ZM162 194.156 169.992 194.156 169.992 218.095 162 218.095ZM281.239 176.281 287.137 176.281 287.137 211.758 281.239 211.758ZM311.858 175.563C315.79 175.563 318.775 176.544 320.813 178.507 322.851 180.47 323.87 183.367 323.87 187.197L323.87 211.758 317.972 211.758 317.972 187.915C317.972 185.521 317.301 183.75 315.958 182.601 314.615 181.451 312.553 180.877 309.772 180.877 308.045 180.877 306.283 181.152 304.485 181.703 302.686 182.254 300.9 183.055 299.126 184.109L299.126 211.758 293.227 211.758 293.227 176.281 298.335 176.281 298.622 179.728 298.838 179.728C300.756 178.292 302.758 177.238 304.844 176.568 306.93 175.898 309.268 175.563 311.858 175.563ZM261.937 175.563C266.205 175.563 269.37 176.556 271.432 178.543 273.494 180.53 274.525 183.606 274.525 187.771L274.525 211.758 269.13 211.758 268.843 208.455 268.699 208.455C267.26 209.604 265.402 210.537 263.124 211.256 260.846 211.974 258.58 212.333 256.326 212.333 252.682 212.333 250.008 211.459 248.306 209.712 246.604 207.964 245.752 205.199 245.752 201.417 245.752 197.586 246.783 194.869 248.845 193.265 250.908 191.661 254.408 190.86 259.347 190.86 260.978 190.86 262.584 190.931 264.167 191.075 265.749 191.219 267.236 191.434 268.627 191.721L268.627 188.274C268.627 185.641 267.955 183.75 266.613 182.601 265.27 181.451 263.112 180.877 260.139 180.877 257.933 180.877 255.991 180.961 254.312 181.128 252.634 181.296 250.955 181.571 249.277 181.954L249.277 176.855C251.195 176.376 253.149 176.041 255.139 175.85 257.13 175.658 259.395 175.563 261.937 175.563ZM333.142 167.663 338.033 167.663 338.033 176.281 350.693 176.281 350.693 181.308 338.033 181.308 338.033 199.334C338.033 202.255 338.572 204.242 339.651 205.295 340.73 206.348 342.637 206.875 345.37 206.875 346.233 206.875 347.228 206.803 348.355 206.659 349.482 206.516 350.381 206.372 351.053 206.228L351.053 211.184C350.285 211.519 349.242 211.794 347.924 212.01 346.605 212.225 345.346 212.333 344.147 212.333 339.831 212.333 336.75 211.375 334.904 209.46 333.058 207.545 332.135 204.242 332.135 199.549L332.135 181.308 326.812 181.308 326.812 176.281 332.206 176.281ZM229.76 166.011C232.061 166.011 234.135 166.119 235.982 166.334 237.828 166.55 239.542 166.873 241.125 167.304L241.125 172.833C239.111 172.355 237.193 172.02 235.37 171.828 233.548 171.637 231.654 171.541 229.688 171.541 225.995 171.541 223.406 172.079 221.919 173.157 220.432 174.234 219.689 176.137 219.689 178.866 219.689 180.59 220.037 181.894 220.732 182.78 221.427 183.666 222.566 184.3 224.149 184.683L235.011 187.269C238.847 188.178 241.4 189.459 242.671 191.111 243.942 192.763 244.578 195.312 244.578 198.759 244.578 203.691 243.295 207.186 240.729 209.245 238.164 211.304 234.099 212.333 228.537 212.333 225.611 212.333 222.794 212.141 220.085 211.758 217.375 211.375 215.229 210.873 213.647 210.25L213.647 204.505C215.901 205.175 218.298 205.69 220.84 206.049 223.382 206.408 225.947 206.587 228.537 206.587 232.133 206.587 234.651 206.061 236.09 205.008 237.528 203.954 238.247 201.919 238.247 198.903 238.247 197.036 237.9 195.683 237.204 194.845 236.509 194.008 235.154 193.349 233.14 192.87L222.207 190.285C219.186 189.567 217.004 188.334 215.661 186.586 214.318 184.839 213.647 182.409 213.647 179.297 213.647 174.749 214.954 171.397 217.567 169.243 220.181 167.088 224.245 166.011 229.76 166.011ZM281.023 164 287.353 164 287.353 170.104 281.023 170.104Z" fill-rule="evenodd"/></g></svg>