<svg width="371" height="218" xmlns="http://www.w3.org/2000/svg" xmlns:xlink="http://www.w3.org/1999/xlink" overflow="hidden"><defs><clipPath id="clip0"><rect x="63" y="142" width="144" height="216"/></clipPath><clipPath id="clip1"><rect x="63" y="142" width="144" height="216"/></clipPath><clipPath id="clip2"><rect x="63" y="142" width="144" height="216"/></clipPath></defs><g transform="translate(-62 -141)"><g clip-path="url(#clip0)"><g clip-path="url(#clip1)"><g clip-path="url(#clip2)"><path d="M102.776 208.031C102.776 208.031 100.93 184.894 111.329 173.828 121.727 162.762 149.555 136.943 151.906 115.815 151.906 115.815 158.612 128.89 155.262 138.284 155.262 138.284 163.983 127.218 162.972 111.455 162.972 111.455 175.38 75.2375 160.627 42.376 160.627 42.376 224.341 95.3609 186.783 159.075 186.783 159.075 201.199 150.691 207.574 137.611 207.574 137.611 196.844 180.534 155.262 202.329 155.262 202.329 168.842 199.815 177.9 193.777 177.9 193.777 158.281 215.741 124.746 222.116 91.2112 228.485 99.5949 258.333 99.5949 258.333 99.5949 258.333 81.1494 235.864 106.638 215.41 132.126 194.956 172.367 172.15 179.072 139.289 179.072 139.289 169.684 163.436 143.192 181.544 116.693 199.647 102.776 208.031 102.776 208.031" fill-rule="evenodd" transform="matrix(1.0056 0 0 1 -18.5859 99.6153)"/></g></g></g><path d="M334.123 314.281C332.4 314.281 330.886 314.715 329.581 315.582 328.277 316.449 327.267 317.591 326.552 319.007 325.837 320.424 325.494 321.778 325.524 323.071L341.661 323.13C341.908 323.13 342.04 323.123 342.057 323.109 342.073 323.094 342.082 323.001 342.082 322.831 342.082 321.321 341.764 319.91 341.13 318.597 340.496 317.284 339.58 316.237 338.382 315.454 337.184 314.672 335.765 314.281 334.123 314.281ZM251.674 309.294 256.617 309.294C257.531 309.294 257.988 309.774 257.988 310.732L257.988 341.568C257.988 342.211 257.829 342.674 257.513 342.956 257.196 343.238 256.733 343.379 256.122 343.379L251.921 343.379C251.339 343.379 250.904 343.252 250.614 342.997 250.324 342.743 250.179 342.328 250.179 341.754L250.179 310.794C250.179 310.336 250.294 309.971 250.525 309.701 250.756 309.43 251.139 309.294 251.674 309.294ZM366.394 308.675C369.287 308.675 371.897 309.237 374.224 310.362 376.552 311.487 378.296 312.956 379.458 314.769 379.696 315.122 379.814 315.431 379.814 315.696 379.814 316.1 379.612 316.425 379.208 316.669L375.943 318.374C375.778 318.458 375.56 318.501 375.291 318.501 374.86 318.501 374.48 318.335 374.153 318.005 373.311 316.839 372.234 315.916 370.922 315.237 369.609 314.559 368.079 314.22 366.332 314.22 364.394 314.22 362.84 314.595 361.672 315.347 360.503 316.099 359.919 317.084 359.919 318.302 359.919 318.988 360.203 319.615 360.77 320.185 361.337 320.754 362.423 321.269 364.029 321.73L371.824 323.957C374.706 324.701 376.881 325.899 378.351 327.551 379.821 329.203 380.555 331.146 380.555 333.379 380.555 335.509 379.928 337.381 378.673 338.995 377.419 340.608 375.697 341.846 373.509 342.707 371.32 343.569 368.867 344 366.147 344 362.74 344 359.73 343.344 357.118 342.032 354.505 340.72 352.612 338.955 351.439 336.736 351.31 336.52 351.245 336.269 351.245 335.985 351.245 335.535 351.432 335.198 351.806 334.972L354.921 333.311C355.253 333.142 355.556 333.058 355.829 333.058 356.255 333.058 356.593 333.226 356.845 333.564 358.914 336.701 361.974 338.269 366.024 338.269 368.173 338.269 369.913 337.889 371.244 337.127 372.575 336.366 373.241 335.364 373.241 334.123 373.241 333.288 372.875 332.556 372.143 331.929 371.411 331.302 370.122 330.752 368.276 330.279L361.974 328.665C358.818 327.894 356.488 326.732 354.984 325.177 353.48 323.622 352.728 321.661 352.728 319.295 352.728 317.199 353.307 315.35 354.464 313.749 355.621 312.148 357.228 310.902 359.285 310.011 361.342 309.12 363.712 308.675 366.394 308.675ZM333.937 308.675C337.103 308.675 339.893 309.378 342.306 310.784 344.718 312.189 346.575 314.221 347.876 316.877 349.178 319.533 349.828 322.655 349.828 326.243L349.828 326.492C349.828 326.968 349.733 327.379 349.542 327.724 349.351 328.069 348.928 328.241 348.272 328.241L325.411 328.241C325.419 328.241 325.423 328.361 325.423 328.601 325.423 330.374 325.84 331.971 326.675 333.394 327.509 334.816 328.639 335.943 330.063 336.774 331.488 337.605 333.047 338.02 334.741 338.02 336.528 338.02 338.114 337.654 339.499 336.92 340.884 336.187 342.175 335.017 343.374 333.412 343.612 333.093 343.927 332.933 344.318 332.933 344.656 332.933 344.939 333.009 345.166 333.161L348.254 334.622C348.686 334.882 348.901 335.212 348.901 335.612 348.901 335.844 348.806 336.119 348.615 336.439 346.804 339.124 344.747 341.055 342.444 342.233 340.14 343.411 337.346 344 334.061 344 330.853 344 327.984 343.268 325.453 341.803 322.922 340.339 320.952 338.288 319.543 335.65 318.134 333.013 317.429 330.022 317.429 326.678 317.429 323.112 318.151 319.964 319.596 317.234 321.041 314.503 323.019 312.394 325.531 310.906 328.043 309.419 330.845 308.675 333.937 308.675ZM282.599 308.675C284.998 308.675 286.993 309.23 288.584 310.339 289.38 310.894 290.056 311.524 290.614 312.229L291.762 314.272 294.625 311.911C295.58 311.216 296.522 310.625 297.449 310.137 299.305 309.162 301.254 308.675 303.297 308.675 306.442 308.675 308.909 309.595 310.697 311.435 312.486 313.275 313.38 315.75 313.38 318.86L313.38 341.63C313.38 342.796 312.799 343.379 311.638 343.379L307.066 343.379C306.539 343.379 306.158 343.242 305.923 342.968 305.688 342.694 305.571 342.289 305.571 341.754L305.571 320.039C305.571 318.344 305.175 317.054 304.383 316.168 303.592 315.282 302.385 314.839 300.763 314.839 298.454 314.839 296.008 316.041 293.424 318.445 293.103 318.766 292.899 319.021 292.812 319.21 292.725 319.399 292.682 319.634 292.682 319.915L292.682 341.63C292.682 342.796 292.101 343.379 290.94 343.379L286.429 343.379C285.392 343.379 284.873 342.838 284.873 341.754L284.873 320.039C284.873 318.349 284.485 317.059 283.709 316.171 282.933 315.283 281.719 314.839 280.066 314.839 278.693 314.839 277.401 315.182 276.191 315.869 274.98 316.555 273.578 317.643 271.984 319.132L271.984 341.693C271.984 342.253 271.825 342.674 271.509 342.956 271.192 343.238 270.749 343.379 270.18 343.379L265.793 343.379C264.714 343.379 264.175 342.838 264.175 341.754L264.175 310.794C264.175 309.794 264.652 309.294 265.608 309.294L270.427 309.294C271.341 309.294 271.799 309.753 271.799 310.671L271.799 313.507 274.34 311.553C275.289 310.901 276.189 310.364 277.041 309.942 278.746 309.097 280.598 308.675 282.599 308.675ZM251.55 296.142 256.678 296.142C257.118 296.142 257.477 296.299 257.755 296.613 258.034 296.927 258.173 297.291 258.173 297.704L258.173 303.287C258.173 303.901 258.021 304.377 257.718 304.716 257.415 305.054 256.945 305.223 256.308 305.223L251.736 305.223C251.131 305.223 250.69 305.066 250.412 304.751 250.133 304.437 249.994 303.99 249.994 303.412L249.994 297.766C249.994 296.683 250.512 296.142 251.55 296.142ZM210.831 296.142 244.751 296.142C245.748 296.142 246.246 296.621 246.246 297.579L246.246 301.55C246.246 302.468 245.748 302.927 244.751 302.927L232.53 302.927 232.53 341.816C232.53 342.858 232.032 343.379 231.035 343.379L225.227 343.379C224.272 343.379 223.794 342.879 223.794 341.878L223.794 302.977C223.794 302.891 223.811 302.861 223.844 302.887 223.877 302.914 223.844 302.927 223.744 302.927L210.77 302.927C209.773 302.927 209.275 302.468 209.275 301.55L209.275 297.579C209.275 296.621 209.794 296.142 210.831 296.142ZM376.6 259.74 373.325 259.984C369.971 260.187 367.367 260.835 365.514 261.929 363.66 263.023 362.733 264.481 362.733 266.304 362.733 267.754 363.243 268.891 364.262 269.713 365.281 270.535 366.683 270.947 368.467 270.947 370.536 270.947 372.509 270.22 374.388 268.766 375.993 267.453 376.796 266.157 376.796 264.877L376.796 260.038C376.796 259.798 376.73 259.698 376.6 259.74ZM272.63 259.74 269.354 259.984C266.001 260.187 263.397 260.835 261.543 261.929 259.69 263.023 258.763 264.481 258.763 266.304 258.763 267.754 259.272 268.891 260.291 269.713 261.311 270.535 262.713 270.947 264.497 270.947 266.566 270.947 268.539 270.22 270.417 268.766 272.023 267.453 272.825 266.157 272.825 264.877L272.825 260.038C272.825 259.798 272.76 259.698 272.63 259.74ZM301.256 247.083C299.876 247.083 298.625 247.379 297.504 247.97 296.382 248.562 295.514 249.316 294.899 250.233 294.285 251.149 293.977 252.04 293.977 252.903L293.977 267.648C295.03 268.741 296.12 269.585 297.246 270.179 298.371 270.773 299.605 271.07 300.947 271.07 303.564 271.07 305.659 270.029 307.229 267.945 308.8 265.862 309.585 262.75 309.585 258.611 309.585 254.634 308.816 251.718 307.277 249.864 305.738 248.01 303.731 247.083 301.256 247.083ZM405.103 247.02C403.38 247.02 401.865 247.454 400.561 248.321 399.256 249.189 398.247 250.331 397.531 251.747 396.816 253.163 396.474 254.518 396.504 255.81L412.64 255.87C412.888 255.87 413.02 255.863 413.036 255.848 413.053 255.834 413.061 255.741 413.061 255.57 413.061 254.06 412.744 252.649 412.11 251.336 411.475 250.024 410.559 248.976 409.362 248.194 408.164 247.412 406.745 247.02 405.103 247.02ZM404.917 241.414C408.083 241.414 410.873 242.117 413.285 243.523 415.698 244.929 417.555 246.96 418.856 249.617 420.158 252.273 420.808 255.395 420.808 258.983L420.808 259.232C420.808 259.708 420.713 260.119 420.522 260.463 420.331 260.808 419.907 260.981 419.251 260.981L396.391 260.981C396.399 260.981 396.403 261.101 396.403 261.341 396.403 263.113 396.82 264.711 397.654 266.133 398.489 267.556 399.619 268.682 401.043 269.513 402.468 270.345 404.027 270.76 405.721 270.76 407.508 270.76 409.094 270.393 410.479 269.66 411.863 268.926 413.155 267.757 414.353 266.152 414.592 265.832 414.906 265.673 415.297 265.673 415.636 265.673 415.919 265.749 416.146 265.901L419.234 267.362C419.665 267.621 419.881 267.951 419.881 268.352 419.881 268.583 419.786 268.859 419.595 269.179 417.784 271.863 415.727 273.795 413.424 274.973 411.12 276.151 408.326 276.74 405.041 276.74 401.833 276.74 398.963 276.007 396.433 274.543 393.902 273.078 391.932 271.027 390.523 268.39 389.113 265.752 388.409 262.761 388.409 259.417 388.409 255.852 389.131 252.704 390.576 249.973 392.021 247.242 393.999 245.133 396.511 243.646 399.023 242.158 401.825 241.414 404.917 241.414ZM370.814 241.414C375.3 241.414 378.678 242.401 380.95 244.376 383.222 246.35 384.358 249.068 384.358 252.531L384.358 274.432C384.358 275.024 384.225 275.453 383.96 275.719 383.694 275.986 383.308 276.119 382.801 276.119L378.662 276.119C377.702 276.119 377.164 275.528 377.046 274.347L376.935 272.228 376.908 272.251C373.801 275.243 370.143 276.74 365.933 276.74 362.598 276.74 359.95 275.866 357.989 274.118 356.028 272.37 355.047 270.034 355.047 267.111 355.047 263.574 356.565 260.767 359.6 258.692 362.635 256.616 366.882 255.452 372.341 255.199L376.318 254.892C376.637 254.851 376.796 254.726 376.796 254.516L376.796 252.964C376.796 251.128 376.238 249.679 375.123 248.615 374.008 247.552 372.469 247.02 370.505 247.02 367.354 247.02 364.837 248.448 362.954 251.302 362.775 251.663 362.542 251.897 362.257 252.006 361.972 252.115 361.513 252.093 360.881 251.94L356.963 250.781C356.427 250.601 356.159 250.233 356.159 249.677 356.159 249.44 356.235 249.144 356.386 248.791 357.607 246.428 359.456 244.607 361.935 243.33 364.414 242.053 367.373 241.414 370.814 241.414ZM303.604 241.414C306.279 241.414 308.668 242.068 310.772 243.374 312.876 244.68 314.526 246.621 315.723 249.197 316.92 251.773 317.518 254.911 317.518 258.611 317.518 262.415 316.919 265.682 315.72 268.411 314.522 271.14 312.82 273.211 310.615 274.622 308.41 276.034 305.867 276.74 302.986 276.74 299.488 276.74 296.486 275.656 293.979 273.489L293.977 273.488 293.977 284.855C293.977 285.855 293.52 286.356 292.606 286.356L287.601 286.356C286.646 286.356 286.169 285.855 286.169 284.855L286.169 243.721C286.169 243.152 286.324 242.728 286.635 242.45 286.945 242.173 287.391 242.034 287.972 242.034L292.297 242.034C293.417 242.034 293.977 242.555 293.977 243.596L293.977 245.553 295.661 244.069C296.337 243.55 297.041 243.082 297.773 242.665 299.238 241.831 301.182 241.414 303.604 241.414ZM266.844 241.414C271.33 241.414 274.708 242.401 276.98 244.376 279.251 246.35 280.387 249.068 280.387 252.531L280.387 274.432C280.387 275.024 280.254 275.453 279.989 275.719 279.724 275.986 279.337 276.119 278.83 276.119L274.691 276.119C273.732 276.119 273.193 275.528 273.075 274.347L272.965 272.228 272.938 272.251C269.83 275.243 266.172 276.74 261.963 276.74 258.628 276.74 255.979 275.866 254.018 274.118 252.057 272.37 251.077 270.034 251.077 267.111 251.077 263.574 252.595 260.767 255.63 258.692 258.665 256.616 262.912 255.452 268.37 255.199L272.348 254.892C272.666 254.851 272.825 254.726 272.825 254.516L272.825 252.964C272.825 251.128 272.268 249.679 271.153 248.615 270.038 247.552 268.499 247.02 266.535 247.02 263.384 247.02 260.867 248.448 258.984 251.302 258.804 251.663 258.572 251.897 258.287 252.006 258.002 252.115 257.543 252.093 256.911 251.94L252.993 250.781C252.457 250.601 252.189 250.233 252.189 249.677 252.189 249.44 252.264 249.144 252.415 248.791 253.636 246.428 255.486 244.607 257.965 243.33 260.443 242.053 263.403 241.414 266.844 241.414ZM221.396 235.357C221.167 235.357 221.05 235.359 221.045 235.362 221.04 235.366 221.038 235.401 221.038 235.468L221.038 248.87C221.038 249.07 221.054 249.17 221.087 249.17L230.17 249.17C233.318 249.17 235.637 248.601 237.128 247.465 238.618 246.328 239.364 244.563 239.364 242.169 239.364 239.893 238.677 238.188 237.305 237.055 235.933 235.923 233.905 235.357 231.22 235.357ZM425.686 228.881 430.567 228.881C431.522 228.881 432 229.381 432 230.381L432 274.308C432 274.951 431.842 275.413 431.525 275.696 431.209 275.978 430.724 276.119 430.072 276.119L425.871 276.119C425.29 276.119 424.854 275.992 424.564 275.737 424.274 275.482 424.129 275.068 424.129 274.493L424.252 230.381C424.252 229.381 424.73 228.881 425.686 228.881ZM323.591 228.881 328.472 228.881C329.386 228.881 329.843 229.34 329.843 230.257L329.843 246.084 332.567 244.11C333.548 243.477 334.468 242.966 335.327 242.578 337.044 241.802 338.919 241.414 340.953 241.414 344.308 241.414 346.889 242.322 348.696 244.136 350.503 245.951 351.407 248.418 351.407 251.538L351.407 274.37C351.407 275.536 350.847 276.119 349.727 276.119L345.155 276.119C344.117 276.119 343.598 275.577 343.598 274.493L343.598 252.779C343.598 251.088 343.183 249.799 342.353 248.911 341.523 248.023 340.232 247.579 338.481 247.579 336.986 247.579 335.624 247.912 334.394 248.579 333.164 249.246 331.709 250.348 330.029 251.885L330.029 274.432C330.029 275.557 329.428 276.119 328.225 276.119L323.838 276.119C323.267 276.119 322.854 275.973 322.601 275.682 322.347 275.391 322.22 274.995 322.22 274.493L322.22 230.381C322.22 229.381 322.677 228.881 323.591 228.881ZM213.797 228.881 231.653 228.881C236.906 228.881 241.002 229.976 243.94 232.167 246.877 234.358 248.346 237.506 248.346 241.611 248.346 244.948 247.445 247.685 245.642 249.823 243.838 251.962 241.628 253.439 239.011 254.255 239.057 254.218 239.111 254.214 239.175 254.241L247.693 274.016C247.799 274.336 247.852 274.558 247.852 274.68 247.852 275.065 247.709 275.401 247.423 275.688 247.137 275.975 246.782 276.119 246.357 276.119L240.364 276.119C239.59 276.119 239.018 275.686 238.647 274.819L231.124 255.993C231.046 255.761 230.728 255.644 230.17 255.644L221.149 255.644C221.075 255.644 221.038 255.661 221.038 255.695L221.038 274.37C221.038 274.971 220.88 275.413 220.563 275.696 220.246 275.978 219.803 276.119 219.234 276.119L213.982 276.119C213.427 276.119 213.009 275.977 212.726 275.693 212.443 275.409 212.302 275.009 212.302 274.493L212.302 230.381C212.302 229.923 212.417 229.558 212.648 229.287 212.879 229.016 213.262 228.881 213.797 228.881ZM154 201.932 169.995 201.932 169.995 217.994 154 217.994ZM269.63 192.479 266.355 192.723C263.002 192.926 260.398 193.575 258.544 194.669 256.69 195.762 255.764 197.221 255.764 199.044 255.764 200.494 256.273 201.63 257.292 202.453 258.312 203.275 259.713 203.686 261.498 203.686 263.566 203.686 265.54 202.959 267.418 201.505 269.024 200.193 269.826 198.897 269.826 197.617L269.826 192.778C269.826 192.537 269.761 192.438 269.63 192.479ZM284.664 174.774 289.607 174.774C290.521 174.774 290.978 175.253 290.978 176.211L290.978 207.047C290.978 207.69 290.82 208.153 290.503 208.435 290.187 208.717 289.723 208.859 289.112 208.859L284.911 208.859C284.33 208.859 283.894 208.731 283.604 208.477 283.314 208.222 283.169 207.807 283.169 207.233L283.169 176.274C283.169 175.815 283.285 175.45 283.516 175.18 283.747 174.909 284.13 174.774 284.664 174.774ZM315.899 174.154C319.161 174.154 321.729 175.072 323.603 176.91 325.477 178.747 326.414 181.182 326.414 184.216L326.414 207.109C326.414 208.276 325.854 208.859 324.734 208.859L320.162 208.859C319.124 208.859 318.605 208.317 318.605 207.233L318.605 185.518C318.605 183.837 318.179 182.55 317.326 181.657 316.473 180.765 315.174 180.318 313.427 180.318 311.973 180.318 310.61 180.662 309.339 181.35 308.068 182.037 306.613 183.129 304.974 184.625L304.974 207.172C304.974 207.732 304.816 208.153 304.499 208.435 304.183 208.717 303.74 208.859 303.17 208.859L298.783 208.859C297.705 208.859 297.165 208.317 297.165 207.233L297.165 176.274C297.165 175.274 297.643 174.774 298.598 174.774L303.479 174.774C304.393 174.774 304.85 175.232 304.85 176.15L304.85 179.008 307.501 177.032C308.485 176.373 309.405 175.833 310.263 175.413 311.979 174.574 313.858 174.154 315.899 174.154ZM263.845 174.154C268.33 174.154 271.709 175.141 273.981 177.115 276.252 179.089 277.388 181.808 277.388 185.27L277.388 207.172C277.388 207.763 277.255 208.192 276.99 208.459 276.725 208.725 276.338 208.859 275.831 208.859L271.692 208.859C270.733 208.859 270.194 208.268 270.076 207.087L269.966 204.968 269.938 204.991C266.831 207.983 263.173 209.479 258.964 209.479 255.628 209.479 252.98 208.605 251.019 206.857 249.058 205.11 248.078 202.774 248.078 199.85 248.078 196.313 249.595 193.507 252.631 191.431 255.666 189.356 259.913 188.191 265.371 187.938L269.349 187.631C269.667 187.591 269.826 187.466 269.826 187.256L269.826 185.704C269.826 183.868 269.269 182.418 268.154 181.355 267.039 180.292 265.5 179.76 263.536 179.76 260.385 179.76 257.868 181.187 255.985 184.042 255.805 184.402 255.573 184.637 255.288 184.746 255.003 184.855 254.544 184.833 253.911 184.679L249.994 183.52C249.458 183.34 249.19 182.972 249.19 182.416 249.19 182.179 249.265 181.884 249.416 181.531 250.637 179.167 252.487 177.347 254.965 176.07 257.444 174.793 260.404 174.154 263.845 174.154ZM337.542 163.606 341.805 163.606C342.761 163.606 343.239 164.127 343.239 165.168L343.239 174.774 350.58 174.774C351.493 174.774 351.951 175.191 351.951 176.026L351.951 179.314C351.951 180.232 351.452 180.691 350.456 180.691L343.115 180.691 343.115 198.858C343.115 200.463 343.375 201.535 343.894 202.073 344.413 202.611 345.282 202.88 346.502 202.88L350.456 202.88C351.37 202.88 351.827 203.318 351.827 204.193L351.827 206.861C351.827 207.787 351.308 208.349 350.269 208.548 349.011 208.755 346.911 208.859 343.969 208.859 341.071 208.859 338.903 208.17 337.465 206.793 336.026 205.416 335.307 203.308 335.307 200.471L335.307 180.803C335.307 180.728 335.31 180.691 335.318 180.691L330.684 180.691C329.729 180.691 329.251 180.232 329.251 179.314L329.251 176.026C329.251 175.191 329.708 174.774 330.622 174.774L335.565 174.774C335.475 174.774 335.43 174.765 335.43 174.749L336.177 164.919C336.301 164.044 336.756 163.606 337.542 163.606ZM284.54 161.621 289.668 161.621C290.109 161.621 290.468 161.778 290.746 162.092 291.024 162.406 291.163 162.77 291.163 163.183L291.163 168.766C291.163 169.38 291.012 169.856 290.709 170.195 290.405 170.533 289.935 170.702 289.298 170.702L284.726 170.702C284.122 170.702 283.681 170.545 283.402 170.23 283.124 169.916 282.984 169.469 282.984 168.891L282.984 163.245C282.984 162.162 283.503 161.621 284.54 161.621ZM228.069 161C231.323 161 234.283 161.579 236.95 162.736 239.617 163.893 241.786 165.457 243.457 167.429 243.793 167.766 243.96 168.129 243.96 168.518 243.96 168.964 243.655 169.382 243.046 169.771L239.878 172.378C239.605 172.584 239.314 172.687 239.005 172.687 238.698 172.687 238.29 172.432 237.781 171.922 236.64 170.617 235.306 169.591 233.78 168.844 232.253 168.097 230.391 167.724 228.193 167.724 225.412 167.724 223.277 168.282 221.788 169.399 220.299 170.515 219.555 172.042 219.555 173.978 219.555 176.574 221.341 178.472 224.914 179.674L234.434 182.68C241.732 184.965 245.381 189.282 245.381 195.632 245.381 199.934 243.799 203.318 240.635 205.782 237.47 208.247 233.179 209.479 227.76 209.479 223.743 209.479 220.185 208.776 217.086 207.369 213.987 205.962 211.574 203.936 209.847 201.292 209.63 200.856 209.522 200.541 209.522 200.346 209.522 199.832 209.816 199.368 210.406 198.954L213.438 196.84C213.909 196.523 214.359 196.365 214.786 196.365 215.301 196.365 215.742 196.622 216.107 197.137 217.698 199.202 219.283 200.665 220.862 201.526 222.441 202.387 224.596 202.818 227.328 202.818 230.414 202.818 232.79 202.304 234.456 201.278 236.122 200.252 236.954 198.659 236.954 196.5 236.954 195.187 236.535 194.071 235.695 193.152 234.856 192.234 233.204 191.334 230.74 190.454L221.281 187.371C218.051 186.291 215.562 184.623 213.813 182.369 212.064 180.114 211.19 177.586 211.19 174.784 211.19 172.072 211.901 169.667 213.323 167.569 214.745 165.47 216.731 163.851 219.28 162.711 221.83 161.57 224.759 161 228.069 161Z" fill-rule="evenodd"/></g></svg>