<svg width="1240" height="490" xmlns="http://www.w3.org/2000/svg" xmlns:xlink="http://www.w3.org/1999/xlink" overflow="hidden"><defs><clipPath id="clip0"><rect x="13" y="87" width="1240" height="490"/></clipPath></defs><g clip-path="url(#clip0)" transform="translate(-13 -87)"><path d="M205.674 314.027C203.51 318.289 201.666 322.757 199.108 326.768 194.894 333.374 190.355 339.786 185.708 346.099 176.47 358.651 166.4 370.484 154.622 380.763 149.172 385.519 143.979 390.643 138.134 394.857 125.672 403.844 112.848 412.327 100.2 421.056 95.3263 424.42 90.6386 428.065 85.6701 431.278 75.8591 437.624 65.876 443.702 56.0363 450.004 51.4517 452.94 47.0921 456.227 42.5161 459.177 40.631 460.393 38.445 461.141 36.2148 462.186 36.2148 454.889 36.212 447.662 36.2204 440.436 36.221 439.883 36.3125 439.331 36.3419 438.777 37.0943 424.636 40.4961 408.494 47.1884 396.74 49.7748 392.197 53.1175 387.995 56.6102 384.08 64.0742 375.712 71.8358 367.61 79.5252 359.446 83.6636 355.052 88.0176 350.858 92.0701 346.388 96.7502 341.226 101.481 336.07 105.699 330.536 113.838 319.86 121.843 309.068 129.507 298.048 136.495 287.999 141.1 276.707 144.837 265.097 145.893 261.817 146.251 258.312 147.071 254.197 151.132 261.832 153.324 269.444 155.16 277.201 157.05 285.183 157.496 293.191 155.681 301.292 156.011 301.434 156.341 301.576 156.672 301.717 158.176 299.16 160.021 296.74 161.121 294.018 164.213 286.375 167.361 278.718 169.766 270.846 171.153 266.304 171.575 261.343 171.665 256.556 171.803 249.209 172.301 242.08 174.554 234.949 176.725 228.078 177.841 220.855 179.173 213.741 180.251 207.987 181.119 202.183 181.781 196.367 182.247 192.269 182.252 188.115 182.392 183.983 182.66 176.056 183.317 168.109 182.99 160.204 182.671 152.48 180.998 144.819 180.507 137.093 179.767 125.459 176.085 114.53 173.044 103.458 171.682 98.4973 169.347 93.8047 167.461 88.9876 167.43 88.9087 167.498 88.791 167.673 88 172.067 92.2152 176.473 95.9416 180.284 100.202 188.512 109.399 196.856 118.544 204.397 128.296 221.958 151.005 235.7 175.881 244.281 203.386 248.42 216.651 251.779 230.166 252.164 244.158 252.45 254.53 252.929 264.979 252.033 275.281 250.589 291.874 246.537 308.019 240.089 323.415 236.34 332.367 231.869 341.015 227.359 350.572 245.346 339.097 260.11 325.327 270.92 307.235 272.655 316.3 245.775 366.347 228.267 388.384 208.721 412.986 185.3 432.847 158.054 448.479 174.01 445.614 188.905 439.902 203.478 432.783 201.95 434.357 200.476 435.988 198.879 437.489 197.275 438.997 195.54 440.364 193.881 441.814 179.915 454.013 164.657 464.354 148.133 472.693 139.362 477.118 130.172 480.719 121.125 484.585 109.998 489.339 98.2284 491.898 86.458 494.38 76.2956 496.524 66.3221 499.29 57.2455 504.402 41.4279 513.31 31.316 526.49 28.0798 544.665 26.3642 554.301 26.084 563.878 28.0934 573.488 28.2164 574.076 28.1094 574.712 28.1094 576 21.9969 567.24 17.9454 558.376 15.639 548.608 13.9864 541.609 13.6284 534.48 14.3632 527.542 15.5204 516.617 19.8528 506.596 26.5889 497.849 30.1105 493.276 33.8372 488.734 38.1201 484.905 45.0572 478.703 52.4943 473.057 59.7854 467.258 65.7066 462.548 71.6485 457.859 77.7203 453.348 83.0108 449.417 88.5862 445.87 93.8715 441.933 100.254 437.179 106.432 432.15 112.758 427.317 118.072 423.257 123.535 419.39 128.81 415.28 132.134 412.69 135.303 409.889 138.419 407.048 146.824 399.385 155.607 392.074 163.43 383.85 177.237 369.336 190.003 353.897 198.568 335.541 201.726 328.774 204.154 321.665 207.046 314.277 207.408 312.692 207.637 311.541 207.867 310.39 207.661 310.333 207.456 310.276 207.25 310.218 206.725 311.488 206.2 312.757 205.674 314.027Z" fill="#010101" fill-rule="evenodd"/><path d="M1183.94 460.737C1183.94 477.644 1183.94 494.551 1183.94 511.69 1173.43 511.69 1163.31 511.69 1153 511.69 1153 463.036 1153 414.384 1153 365.51 1153.7 365.416 1154.44 365.235 1155.17 365.233 1172.07 365.186 1188.98 364.698 1205.86 365.293 1216.67 365.674 1227.39 367.335 1236.92 373.61 1242.49 377.276 1246.59 382.086 1249.06 387.72 1251.87 394.134 1253.16 401.245 1252.98 408.407 1252.87 412.918 1252.47 417.422 1252.37 421.933 1252.14 433.044 1247.57 442.137 1239.21 449.356 1236.99 451.271 1234.28 452.657 1231.69 454.114 1230.28 454.911 1229.91 455.513 1230.61 457.179 1237.82 474.322 1244.91 491.511 1252 508.705 1252.36 509.581 1252.29 510.627 1252.48 511.929 1241.96 511.929 1231.69 511.929 1220.92 511.911 1220.31 511.928 1220.19 511.964 1220.07 512 1218.98 509.804 1217.72 507.674 1216.82 505.403 1210.87 490.365 1204.99 475.298 1199.01 460.045 1194.47 460.045 1189.8 460.045 1184.59 460.004 1184.03 460.222 1183.98 460.479 1183.94 460.737M1209.95 431.999C1214.62 430.397 1218.25 427.607 1219.94 422.891 1221.97 417.247 1222.28 411.475 1220.98 405.585 1219.18 397.392 1214.61 392.922 1206.18 392.281 1199.83 391.799 1193.43 392.162 1187.05 391.949 1184.54 391.865 1183.81 392.642 1183.84 395.144 1183.97 406.767 1183.89 418.393 1183.91 430.018 1183.91 430.866 1184.06 431.715 1184.21 433.264 1192.74 432.872 1201.07 432.488 1209.95 431.999Z" fill="#010101" fill-rule="evenodd"/><path d="M824.915 365C840.37 365.057 855.827 365.015 871.281 365.222 877.436 365.304 883.837 364.974 889.686 366.515 903.295 370.103 914.582 376.77 919.17 391.692 922.516 402.579 922.454 413.473 921.236 424.453 919.933 436.196 914.684 445.862 904.458 452.346 902.777 453.412 901.022 454.36 899.113 455.472 906.661 474.065 914.175 492.572 921.864 511.512 920.994 511.632 919.8 511.937 918.605 511.942 909.659 511.983 900.713 511.907 891.768 511.999 889.127 512.026 888.094 511.556 887.221 508.436 885.31 501.611 882.085 495.165 879.544 488.507 876.707 481.071 874.038 473.571 871.283 466.103 870.652 464.392 870.103 462.627 869.234 461.042 868.924 460.476 867.787 460.112 867.018 460.096 862.717 460.007 858.413 460.053 853.768 460.053 853.768 477.296 853.768 494.411 853.768 511.743 843.429 511.743 833.43 511.743 823.214 511.743 823.146 511.059 823.01 510.328 823.009 509.597 822.998 462.397 822.998 415.196 823.004 367.996 823.004 367.113 823.103 366.231 823.586 365.273 824.316 365.132 824.616 365.066 824.915 365M875.666 392.157C869.389 392.092 863.108 392.122 856.836 391.913 854.344 391.829 853.629 392.675 853.653 395.131 853.763 406.627 853.696 418.125 853.712 429.623 853.713 430.592 853.852 431.562 853.956 432.901 859.983 432.901 865.801 432.902 871.62 432.901 883.713 432.899 889.767 427.517 891.041 415.535 891.239 413.675 891.209 411.773 891.098 409.902 890.479 399.44 885.56 393.62 875.666 392.157Z" fill="#020202" fill-rule="evenodd"/><path d="M386.885 460.727C386.885 477.663 386.885 494.598 386.885 511.767 376.375 511.767 366.287 511.767 356 511.767 356 463.023 356 414.292 356 365.082 357.255 365.082 358.44 365.082 359.625 365.082 374.92 365.082 390.22 364.852 405.509 365.163 415.662 365.37 425.788 366.343 435.147 370.956 444.622 375.627 450.852 383.114 453.418 393.134 456.968 406.997 457.075 420.988 452.373 434.693 449.419 443.303 443.504 449.608 435.4 453.689 433.026 454.885 432.75 455.972 433.65 458.15 440.597 474.976 447.494 491.823 454.383 508.672 454.775 509.63 454.962 510.67 455.335 511.991 444.431 511.991 433.95 512.046 423.473 511.885 422.638 511.872 421.446 510.501 421.064 509.515 416.673 498.184 412.442 486.791 408.089 475.445 406.118 470.31 403.968 465.242 401.861 460.048 397.376 460.048 392.725 460.048 387.555 460.003 386.985 460.214 386.935 460.471 386.885 460.727M393.17 432.868C397.743 432.868 402.321 433.001 406.888 432.834 412.958 432.612 418.406 430.745 421.573 425.194 424.901 419.361 425.187 412.926 423.971 406.482 422.106 396.588 416.545 392.053 406.381 391.914 400.916 391.839 395.447 392.013 389.986 391.85 387.509 391.776 386.732 392.488 386.765 395.023 386.907 405.766 386.782 416.512 386.843 427.256 386.877 433.442 385.646 432.814 393.17 432.868Z" fill="#010101" fill-rule="evenodd"/><path d="M803.818 461.295C803.149 465.608 802.645 469.665 801.78 473.643 799.718 483.125 796.208 492.03 789.705 499.372 782.141 507.91 772.31 512.235 761.147 513.725 757.4 514.225 753.607 515.195 749.896 514.965 743.28 514.555 736.709 513.397 730.119 512.548 721.24 511.404 714.243 506.475 708.687 500.09 704.487 495.264 701.138 489.37 698.702 483.42 696.244 477.414 694.985 470.818 693.937 464.361 693.091 459.15 693.203 453.761 693.134 448.448 693.021 439.72 692.872 430.981 693.199 422.264 693.378 417.471 694.504 412.714 695.188 407.939 695.264 407.405 695.323 406.848 695.259 406.317 694.814 402.625 696.896 399.585 697.815 396.246 697.895 395.957 698.248 395.704 698.245 395.436 698.198 390.592 701.82 387.403 703.86 383.595 709.849 372.421 720.236 367.033 732.105 364.649 738.412 363.382 744.993 363.386 751.463 363.053 758.925 362.669 765.99 364.417 773.073 366.818 781.38 369.635 787.219 375.105 792.573 381.681 798.6 389.081 800.512 397.943 802.475 406.849 805.605 421.046 804.959 435.477 804.918 449.856 804.908 453.573 804.203 457.287 803.818 461.295M746.025 389.586C743.004 390.505 739.715 390.938 737.016 392.438 730.282 396.182 727.921 402.971 726.367 409.962 723.464 423.028 723.846 436.34 724.417 449.563 724.737 456.997 725.9 464.508 727.697 471.732 729.651 479.591 734.282 485.878 742.957 487.298 751.863 488.756 760.672 488.459 766.356 479.949 768.683 476.463 770.322 472.276 771.31 468.175 774.655 454.279 773.974 440.057 773.556 425.946 773.362 419.393 772.247 412.726 770.526 406.39 767.262 394.377 760.254 388.612 746.025 389.586Z" fill="#020202" fill-rule="evenodd"/><path d="M527.41 512C509.127 512 491.18 512 473 512 473 463.038 473 414.228 473 365.063 474.182 365.063 475.273 365.063 476.364 365.063 504.087 365.063 531.81 365.111 559.531 365 562.819 364.987 564.139 365.741 563.984 369.239 563.709 375.436 563.7 381.662 563.988 387.857 564.148 391.286 562.689 391.952 559.686 391.931 546.78 391.84 533.872 391.892 520.965 391.892 516.139 391.892 511.313 391.91 506.487 391.882 504.982 391.874 503.893 392.038 503.905 393.992 503.966 403.736 503.933 413.481 503.933 423.673 520.653 423.673 537.186 423.673 554.083 423.673 554.083 432.388 554.141 440.659 553.957 448.924 553.945 449.493 552.135 450.489 551.154 450.499 539.595 450.609 528.034 450.57 516.473 450.57 512.442 450.57 508.411 450.57 504.16 450.57 504.16 462.238 504.16 473.681 504.16 485.489 505.4 485.489 506.488 485.489 507.575 485.489 524.972 485.489 542.37 485.568 559.765 485.419 563.053 485.391 564.054 486.399 563.969 489.583 563.773 496.877 563.907 504.179 563.907 512 551.663 512 539.705 512 527.41 512Z" fill="#020202" fill-rule="evenodd"/><path d="M1132.18 391.877C1122.2 391.814 1112.22 391.732 1102.24 391.694 1094.36 391.664 1086.48 391.699 1078.6 391.679 1076.95 391.675 1075.58 391.599 1075.6 394.022 1075.7 403.69 1075.64 413.36 1075.64 423.609 1092.19 423.609 1108.61 423.609 1125.18 423.609 1125.18 432.276 1125.09 440.366 1125.23 448.451 1125.27 450.777 1124.01 450.58 1122.5 450.578 1108.19 450.561 1093.87 450.568 1079.56 450.567 1078.36 450.567 1077.17 450.567 1075.81 450.567 1075.81 462.311 1075.81 473.708 1075.81 485.447 1076.94 485.503 1078 485.6 1079.06 485.601 1096.37 485.61 1113.69 485.677 1131 485.543 1134.09 485.52 1135.07 486.465 1135 489.537 1134.82 496.953 1134.94 504.377 1134.94 512 1104.75 512 1074.96 512 1045 512 1045 463.039 1045 414.136 1045 365 1074.81 365 1104.6 365 1134.94 365 1134.94 368.084 1134.94 371.152 1134.94 374.221 1134.94 378.893 1135 383.567 1134.9 388.237 1134.87 389.463 1134.36 390.679 1133.6 391.798 1132.81 391.757 1132.49 391.817 1132.18 391.877Z" fill="#020202" fill-rule="evenodd"/><path d="M637.6 459.491C629.083 459.491 620.565 459.491 611.667 459.491 611.667 477.314 611.667 494.56 611.667 512 601.239 512 591.197 512 581 512 581 463.09 581 414.289 581 365.095 582.192 365.095 583.268 365.095 584.345 365.095 599.678 365.095 615.017 364.83 630.342 365.187 640.757 365.429 651.129 366.411 660.677 371.476 665.56 374.066 669.355 377.495 672.818 381.808 677.825 388.043 679.034 395.28 679.506 402.682 679.982 410.139 680.359 417.746 679.424 425.116 677.634 439.222 670.393 450.014 656.718 455.229 651.318 457.289 645.349 457.86 639.174 459.118 638.34 459.247 637.97 459.369 637.6 459.491M621.935 432.966C625.266 432.965 628.598 433.027 631.927 432.952 639.976 432.768 646.789 428.201 648.012 421.113 648.897 415.984 648.972 410.519 648.273 405.358 647.198 397.419 642.177 392.89 634.246 392.285 627.512 391.771 620.719 392.068 613.953 391.924 611.892 391.879 611.663 392.947 611.67 394.641 611.72 406.51 611.736 418.381 611.656 430.25 611.643 432.249 612.216 433.094 614.278 432.991 616.603 432.876 618.939 432.965 621.935 432.966Z" fill="#010101" fill-rule="evenodd"/><path d="M995.539 512C986.094 512 976.649 512 966.894 512 966.894 510.66 966.894 509.699 966.894 508.738 966.894 471.175 966.846 433.611 966.975 396.049 966.986 392.66 966.115 391.711 962.711 391.806 953.802 392.055 944.881 391.902 935.498 391.907 934.921 391.961 934.812 392.018 934.703 392.075 934.15 391.313 933.129 390.558 933.117 389.788 932.998 382.263 933.116 374.735 933.001 367.21 932.971 365.27 933.826 365.027 935.394 365.054 938.956 365.113 942.519 365.07 946.082 365.07 973.361 365.07 1000.64 365.125 1027.92 365 1031.21 364.985 1032.1 366.003 1031.99 369.156 1031.77 375.569 1031.97 381.995 1031.88 388.415 1031.87 389.518 1031.3 390.614 1030.42 391.745 1019.97 391.852 1010.1 391.929 1000.23 392.005 998.298 391.609 997.597 392.454 997.632 394.332 997.699 397.878 997.648 401.426 997.648 404.973 997.648 439.559 997.65 474.144 997.641 508.73 997.64 509.718 997.529 510.707 996.974 511.775 996.165 511.904 995.852 511.952 995.539 512Z" fill="#030303" fill-rule="evenodd"/><path d="M544.246 340.849C541.078 340.849 538.226 340.849 535.165 340.849 535.102 339.813 535.006 338.962 535.006 338.11 534.997 317.119 534.991 296.128 535.013 275.137 535.015 273.136 535.199 271.507 532.225 271.523 511.893 271.629 491.56 271.565 471.227 271.567 471.025 271.567 470.823 271.711 470.378 271.88 470.314 272.498 470.174 273.228 470.174 273.959 470.163 294.949 470.111 315.941 470.228 336.931 470.245 340.073 469.549 341.316 466.186 340.933 462.852 340.553 459.443 340.85 456 340.85 456 291.562 456 242.541 456 193.271 460.724 193.271 465.174 193.271 470.004 193.271 470.004 215.15 470.004 236.959 470.004 258.906 470.978 259.038 471.6 259.194 472.222 259.195 491.893 259.201 511.565 259.107 531.235 259.27 534.438 259.296 535.076 258.275 535.059 255.302 534.944 235.763 535 216.224 535 196.684 535 195.599 535 194.513 535 193.033 539.142 193.033 542.981 192.911 546.799 193.138 547.54 193.182 548.377 194.491 548.84 195.389 549.157 196.005 548.905 196.921 548.905 197.702 548.905 243.927 548.907 290.152 548.896 336.376 548.896 337.795 548.76 339.213 548.676 340.849 547.12 340.849 545.841 340.849 544.246 340.849Z" fill="#030303" fill-rule="evenodd"/><path d="M583.797 193.063C607.828 193.063 631.53 193.112 655.232 193 658.121 192.986 659.234 193.694 658.96 196.692 658.703 199.5 658.905 202.35 658.905 205.466 657.638 205.466 656.227 205.466 654.816 205.466 634.879 205.466 614.942 205.532 595.006 205.399 591.855 205.378 590.876 206.165 590.915 209.446 591.096 224.96 590.995 240.476 590.995 255.992 590.995 256.85 590.995 257.707 590.995 258.963 610.579 258.963 629.886 258.963 649.392 258.963 649.392 263.169 649.392 266.977 649.392 271.08 629.972 271.08 610.753 271.08 591.246 271.08 591.246 289.905 591.246 308.44 591.246 327.203 591.899 327.266 592.632 327.399 593.365 327.399 613.966 327.408 634.568 327.476 655.168 327.325 658.366 327.301 659.015 328.378 658.967 331.301 658.824 339.992 658.935 339.994 650.388 339.994 626.685 339.996 602.983 339.998 579.281 340 578.641 340 578.001 340 577.055 340 577.055 338.785 577.055 337.823 577.055 336.86 577.055 290.535 577.049 244.21 577.064 197.886 577.065 192.877 576.08 193.058 581.807 193.063 582.361 193.064 582.914 193.063 583.797 193.063Z" fill="#030303" fill-rule="evenodd"/><path d="M361.775 193.037C387.029 193.06 411.949 193.082 436.868 193.119 437.177 193.12 437.486 193.312 438 193.482 438 197.299 438 201.142 438 205.304 437.062 205.374 436.109 205.506 435.156 205.507 424.986 205.521 414.814 205.645 404.649 205.438 401.332 205.371 400.617 206.472 400.624 209.616 400.726 252.008 400.662 294.401 400.755 336.794 400.762 339.912 400.105 341.274 396.711 340.955 393.507 340.653 390.25 340.89 386.936 340.89 386.936 317.796 386.936 294.854 386.936 271.912 386.936 251.162 386.882 230.412 386.991 209.662 387.008 206.429 385.878 205.419 382.714 205.459 371.654 205.599 360.592 205.514 349.034 205.514 349.034 202.041 348.904 198.407 349.154 194.798 349.199 194.156 350.794 193.18 351.723 193.12 354.95 192.911 358.199 193.038 361.775 193.037Z" fill="#010101" fill-rule="evenodd"/><path d="M1000 392.43C1009.77 392.065 1019.73 391.965 1030 392.01 1029.94 392.45 1029.58 393.002 1029.22 393 1019.54 392.933 1009.87 392.809 1000 392.43Z" fill="#CBCBCB" fill-rule="evenodd"/><path d="M206 313.946C206.22 312.611 206.781 311.306 207.342 310 207.561 310.059 207.781 310.118 208 310.177 207.755 311.36 207.51 312.544 207.141 313.902 206.792 314.042 206.566 314.009 206 313.946Z" fill="#DCDCDC" fill-rule="evenodd"/><path d="M1133 392.227C1133.26 392.007 1133.55 391.957 1134 392.033 1134.02 392.439 1133.86 392.72 1133.7 393 1133.47 392.799 1133.24 392.597 1133 392.227Z" fill="#EFEFEF" fill-rule="evenodd"/><path d="M825 364.736C824.747 364.966 824.476 365.023 824.011 364.993 823.959 364.604 824.098 364.302 824.238 364 824.486 364.187 824.733 364.374 825 364.736Z" fill="#EFEFEF" fill-rule="evenodd"/><path d="M638 460C638.233 459.389 638.541 459.087 639 459 638.792 459.579 638.434 459.945 638 460Z" fill="#ACACAC" fill-rule="evenodd"/><path d="M995 512.955C995.245 512.13 995.52 511.958 996 512.008 995.813 512.689 995.422 513.149 995 512.955Z" fill="#CBCBCB" fill-rule="evenodd"/><path d="M935 392.286C935.213 392.037 935.436 391.976 935.993 392.007 936.048 392.399 935.77 392.7 935.491 393 935.331 392.825 935.17 392.649 935 392.286Z" fill="#EFEFEF" fill-rule="evenodd"/><path d="M1220 512.247C1220.21 512.021 1220.43 511.98 1220.97 512.007 1221.08 512.384 1220.86 512.692 1220.63 513 1220.43 512.81 1220.22 512.62 1220 512.247Z" fill="#DCDCDC" fill-rule="evenodd"/><path d="M387.099 461C386.866 460.712 387.02 460.305 387.81 460 388.238 460.398 387.918 460.658 387.099 461Z" fill="#D0D0D0" fill-rule="evenodd"/><path d="M1184.12 461C1183.86 460.717 1184 460.313 1184.8 460 1185.24 460.38 1184.93 460.643 1184.12 461Z" fill="#BEBEBE" fill-rule="evenodd"/><path d="M1209.9 431.797C1201.27 432.23 1192.92 432.611 1184.37 433 1184.22 431.462 1184.07 430.621 1184.07 429.779 1184.05 418.244 1184.13 406.709 1184 395.176 1183.97 392.694 1184.7 391.923 1187.22 392.006 1193.61 392.217 1200.03 391.857 1206.39 392.336 1214.84 392.971 1219.41 397.407 1221.22 405.536 1222.52 411.38 1222.21 417.107 1220.18 422.708 1218.48 427.387 1214.85 430.155 1209.9 431.797Z" fill="#FDFDFD" fill-rule="evenodd"/><path d="M875.982 392.282C885.455 393.714 890.303 399.534 890.914 409.998 891.023 411.869 891.053 413.771 890.858 415.631 889.601 427.615 883.634 432.997 871.712 432.999 865.976 433.001 860.24 433 854.3 433 854.197 431.66 854.06 430.69 854.059 429.721 854.044 418.222 854.109 406.722 854 395.224 853.977 392.768 854.682 391.922 857.138 392.006 863.322 392.215 869.513 392.185 875.982 392.282Z" fill="#FBFBFB" fill-rule="evenodd"/><path d="M392.938 432.95C385.907 432.896 387.11 433.523 387.076 427.348 387.018 416.623 387.139 405.896 387.001 395.173 386.968 392.643 387.728 391.931 390.148 392.005 395.484 392.168 400.829 391.995 406.168 392.069 416.1 392.208 421.534 396.735 423.357 406.611 424.544 413.044 424.265 419.467 421.013 425.29 417.918 430.831 412.594 432.694 406.664 432.916 402.201 433.083 397.728 432.95 392.938 432.95Z" fill="#FDFDFD" fill-rule="evenodd"/><path d="M746.361 389.1C760.314 388.155 767.337 393.949 770.607 406.021 772.332 412.388 773.45 419.087 773.644 425.672 774.063 439.853 774.745 454.145 771.393 468.109 770.404 472.23 768.761 476.438 766.428 479.941 760.733 488.493 751.905 488.792 742.98 487.327 734.286 485.9 729.646 479.581 727.687 471.683 725.887 464.425 724.721 456.876 724.4 449.406 723.828 436.118 723.445 422.74 726.355 409.61 727.912 402.585 730.278 395.762 737.026 392 739.731 390.493 743.027 390.057 746.361 389.1Z" fill="#FDFDFD" fill-rule="evenodd"/><path d="M621.924 432.966C619.266 432.966 616.936 432.876 614.615 432.992 612.558 433.094 611.987 432.251 612 430.256 612.08 418.409 612.064 406.561 612.014 394.713 612.007 393.023 612.236 391.957 614.292 392.001 621.041 392.146 627.819 391.849 634.537 392.362 642.449 392.966 647.458 397.486 648.531 405.411 649.228 410.562 649.153 416.016 648.271 421.136 647.051 428.211 640.253 432.769 632.223 432.952 628.902 433.028 625.578 432.966 621.924 432.966Z" fill="#FDFDFD" fill-rule="evenodd"/></g></svg>